<?xml version="1.0" encoding="utf-8"?>
<!-- Generator: Adobe Illustrator 22.0.1, SVG Export Plug-In . SVG Version: 6.00 Build 0)  -->
<svg version="1.1" id="Слой_1" opacity="0.5" xmlns="http://www.w3.org/2000/svg" xmlns:xlink="http://www.w3.org/1999/xlink"
	 x="0px" y="0px" viewBox="0 0 1400 400" style="enable-background:new 0 0 1400 400;" xml:space="preserve">
<style type="text/css">
	.st0{fill:none;stroke:#89C2F0;stroke-width:4;stroke-miterlimit:10;}
</style>
<title>2</title>
<polygon class="st0" points="1054.4,42.6 982.4,42.6 946.4,104.9 982.4,167.3 1054.4,167.3 1090.4,104.9 "/>
<polygon class="st0" points="1169.4,108.6 1097.4,108.6 1061.4,170.9 1097.4,233.3 1169.4,233.3 1205.4,170.9 "/>
<polygon class="st0" points="1169.4,-23.4 1097.4,-23.4 1061.4,38.9 1097.4,101.3 1169.4,101.3 1205.4,38.9 "/>
<polygon class="st0" points="1284.4,42.6 1212.4,42.6 1176.4,104.9 1212.4,167.3 1284.4,167.3 1320.4,104.9 "/>
<polygon class="st0" points="1399.4,108.6 1327.4,108.6 1291.4,170.9 1327.4,233.3 1399.4,233.3 1435.4,170.9 "/>
<polygon class="st0" points="1399.4,-23.4 1327.4,-23.4 1291.4,38.9 1327.4,101.3 1399.4,101.3 1435.4,38.9 "/>
<polygon class="st0" points="939.1,241.6 867.1,241.6 831.1,303.9 867.1,366.3 939.1,366.3 975.1,303.9 "/>
<polygon class="st0" points="1054.1,307.6 982.1,307.6 946.1,369.9 982.1,432.3 1054.1,432.3 1090.1,369.9 "/>
<polygon class="st0" points="1054.1,175.6 982.1,175.6 946.1,237.9 982.1,300.3 1054.1,300.3 1090.1,237.9 "/>
<polygon class="st0" points="1169.1,241.6 1097.1,241.6 1061.1,303.9 1097.1,366.3 1169.1,366.3 1205.1,303.9 "/>
<polygon class="st0" points="1284.1,307.6 1212.1,307.6 1176.1,369.9 1212.1,432.3 1284.1,432.3 1320.1,369.9 "/>
<polygon class="st0" points="1284.1,175.6 1212.1,175.6 1176.1,237.9 1212.1,300.3 1284.1,300.3 1320.1,237.9 "/>
<polygon class="st0" points="595.4,42.6 523.4,42.6 487.4,104.9 523.4,167.3 595.4,167.3 631.4,104.9 "/>
<polygon class="st0" points="710.4,108.6 638.4,108.6 602.4,170.9 638.4,233.3 710.4,233.3 746.4,170.9 "/>
<polygon class="st0" points="710.4,-23.4 638.4,-23.4 602.4,38.9 638.4,101.3 710.4,101.3 746.4,38.9 "/>
<polygon class="st0" points="825.4,42.6 753.4,42.6 717.4,104.9 753.4,167.3 825.4,167.3 861.4,104.9 "/>
<polygon class="st0" points="940.4,108.6 868.4,108.6 832.4,170.9 868.4,233.3 940.4,233.3 976.4,170.9 "/>
<polygon class="st0" points="940.4,-23.4 868.4,-23.4 832.4,38.9 868.4,101.3 940.4,101.3 976.4,38.9 "/>
<polygon class="st0" points="480.1,241.6 408.1,241.6 372.1,303.9 408.1,366.3 480.1,366.3 516.1,303.9 "/>
<polygon class="st0" points="595.1,307.6 523.1,307.6 487.1,369.9 523.1,432.3 595.1,432.3 631.1,369.9 "/>
<polygon class="st0" points="595.1,175.6 523.1,175.6 487.1,237.9 523.1,300.3 595.1,300.3 631.1,237.9 "/>
<polygon class="st0" points="710.1,241.6 638.1,241.6 602.1,303.9 638.1,366.3 710.1,366.3 746.1,303.9 "/>
<polygon class="st0" points="825.1,307.6 753.1,307.6 717.1,369.9 753.1,432.3 825.1,432.3 861.1,369.9 "/>
<polygon class="st0" points="825.1,175.6 753.1,175.6 717.1,237.9 753.1,300.3 825.1,300.3 861.1,237.9 "/>
<polygon class="st0" points="1398.4,241.6 1326.4,241.6 1290.4,303.9 1326.4,366.3 1398.4,366.3 1434.4,303.9 "/>
<polygon class="st0" points="1398.4,373.6 1326.4,373.6 1290.4,435.9 1326.4,498.3 1398.4,498.3 1434.4,435.9 "/>
</svg>
