<?xml version="1.0" encoding="utf-8"?>
<!-- Generator: Adobe Illustrator 22.0.1, SVG Export Plug-In . SVG Version: 6.00 Build 0)  -->
<svg version="1.1" id="Слой_1" xmlns="http://www.w3.org/2000/svg" xmlns:xlink="http://www.w3.org/1999/xlink" x="0px" y="0px"
	 viewBox="0 0 1075 598" style="enable-background:new 0 0 1075 598;" xml:space="preserve">
<style type="text/css">
	.st0{fill:none;stroke:#815A48;stroke-width:4;stroke-miterlimit:10;}
	.st1{fill:none;stroke:#89C2F0;stroke-width:4;stroke-miterlimit:10;}
	.st2{fill:none;stroke:#B7AA9F;stroke-width:4;stroke-miterlimit:10;}
	.st3{fill:none;stroke:#323441;stroke-width:4;stroke-miterlimit:10;}
	.st4{fill:none;stroke:#F2EFED;stroke-width:4;stroke-miterlimit:10;}
</style>
<title>2</title>
<polygon class="st0" points="352.1,266.9 388.1,329.3 460.1,329.3 496.1,266.9 460.1,204.6 388.1,204.6 "/>
<polygon class="st1" points="237.1,332.9 273.1,395.3 345.1,395.3 381.1,332.9 345.1,270.6 273.1,270.6 "/>
<polygon class="st2" points="237.1,200.9 273.1,263.3 345.1,263.3 381.1,200.9 345.1,138.6 273.1,138.6 "/>
<polygon class="st0" points="122.1,266.9 158.1,329.3 230.1,329.3 266.1,266.9 230.1,204.6 158.1,204.6 "/>
<polygon class="st1" points="7.1,200.9 43.1,263.3 115.1,263.3 151.1,200.9 115.1,138.6 43.1,138.6 "/>
<polygon class="st3" points="467.4,465.9 503.4,528.3 575.4,528.3 611.4,465.9 575.4,403.6 503.4,403.6 "/>
<polygon class="st1" points="352.4,399.9 388.4,462.3 460.4,462.3 496.4,399.9 460.4,337.6 388.4,337.6 "/>
<polygon class="st2" points="121.7,398.9 157.7,461.3 229.7,461.3 265.7,398.9 229.7,336.6 157.7,336.6 "/>
<polygon class="st3" points="811.1,266.9 847.1,329.3 919.1,329.3 955.1,266.9 919.1,204.6 847.1,204.6 "/>
<polygon class="st0" points="696.1,332.9 732.1,395.3 804.1,395.3 840.1,332.9 804.1,270.6 732.1,270.6 "/>
<polygon class="st3" points="581.1,266.9 617.1,329.3 689.1,329.3 725.1,266.9 689.1,204.6 617.1,204.6 "/>
<polygon class="st4" points="466.1,332.9 502.1,395.3 574.1,395.3 610.1,332.9 574.1,270.6 502.1,270.6 "/>
<polygon class="st1" points="466.1,200.9 502.1,263.3 574.1,263.3 610.1,200.9 574.1,138.6 502.1,138.6 "/>
<polygon class="st4" points="926.4,465.9 962.4,528.3 1034.4,528.3 1070.4,465.9 1034.4,403.6 962.4,403.6 "/>
<polygon class="st1" points="811.4,399.9 847.4,462.3 919.4,462.3 955.4,399.9 919.4,337.6 847.4,337.6 "/>
<polygon class="st2" points="696.4,465.9 732.4,528.3 804.4,528.3 840.4,465.9 804.4,403.6 732.4,403.6 "/>
<polygon class="st1" points="581.4,399.9 617.4,462.3 689.4,462.3 725.4,399.9 689.4,337.6 617.4,337.6 "/>
<polygon class="st1" points="121.4,134.9 157.4,197.3 229.4,197.3 265.4,134.9 229.4,72.6 157.4,72.6 "/>
<polygon class="st1" points="352.1,134.3 388.1,196.6 460.1,196.6 496.1,134.3 460.1,71.9 388.1,71.9 "/>
<polygon class="st0" points="581.4,133.9 617.4,196.3 689.4,196.3 725.4,133.9 689.4,71.6 617.4,71.6 "/>
<polygon class="st3" points="236.4,68.9 272.4,131.3 344.4,131.3 380.4,68.9 344.4,6.6 272.4,6.6 "/>
<polygon class="st2" points="467.1,68.3 503.1,130.6 575.1,130.6 611.1,68.3 575.1,5.9 503.1,5.9 "/>
<polygon class="st1" points="696.4,67.9 732.4,130.3 804.4,130.3 840.4,67.9 804.4,5.6 732.4,5.6 "/>
<polygon class="st4" points="7.2,68.9 43.2,131.3 115.2,131.3 151.2,68.9 115.2,6.6 43.2,6.6 "/>
<polygon class="st4" points="696.4,199.9 732.4,262.3 804.4,262.3 840.4,199.9 804.4,137.6 732.4,137.6 "/>
</svg>
