<?xml version="1.0" encoding="utf-8"?>
<!-- Generator: Adobe Illustrator 22.0.1, SVG Export Plug-In . SVG Version: 6.00 Build 0)  -->
<svg version="1.1" id="Capa_1" xmlns="http://www.w3.org/2000/svg" xmlns:xlink="http://www.w3.org/1999/xlink" x="0px" y="0px"
	 viewBox="0 0 512 512" style="enable-background:new 0 0 512 512;" xml:space="preserve">
<style type="text/css">
	.st0{fill:#3B5998;}
</style>
<g>
	<g>
		<g>
			<path class="st0" d="M170.7,136.8c-3.3-2.5-8-1.7-10.5,1.6l-14.8,20.2l-5.1-7c-2.4-3.3-7.1-4.1-10.5-1.6
				c-3.3,2.4-4.1,7.1-1.6,10.5l8.8,12c1.9,2.7,5.1,4.3,8.4,4.3l0,0c3.3,0,6.4-1.6,8.4-4.2l18.6-25.2
				C174.7,144,174,139.3,170.7,136.8L170.7,136.8z"/>
			<path class="st0" d="M170.7,259.8c-3.3-2.5-8-1.7-10.5,1.6l-14.8,20.2l-5.1-7c-2.4-3.3-7.1-4.1-10.5-1.6
				c-3.3,2.4-4.1,7.1-1.6,10.5l8.8,12c1.9,2.7,5.1,4.3,8.4,4.3l0,0c3.3,0,6.4-1.6,8.4-4.2l18.6-25.2
				C174.7,267,174,262.3,170.7,259.8L170.7,259.8z"/>
			<path class="st0" d="M170.7,377.6c-3.3-2.5-8-1.7-10.5,1.6l-14.8,20.2l-5.1-7c-2.4-3.3-7.1-4.1-10.5-1.6
				c-3.3,2.4-4.1,7.1-1.6,10.5l8.8,12c1.9,2.7,5.1,4.3,8.4,4.3l0,0c3.3,0,6.4-1.6,8.4-4.2l18.6-25.2
				C174.7,384.8,174,380.1,170.7,377.6L170.7,377.6z"/>
			<path class="st0" d="M228,147.9h92.7c4.1,0,7.5-3.4,7.5-7.5s-3.4-7.5-7.5-7.5H228c-4.1,0-7.5,3.4-7.5,7.5S223.9,147.9,228,147.9
				L228,147.9z"/>
			<path class="st0" d="M228,179.2h46.4c4.1,0,7.5-3.4,7.5-7.5s-3.4-7.5-7.5-7.5H228c-4.1,0-7.5,3.4-7.5,7.5S223.9,179.2,228,179.2
				L228,179.2z"/>
			<path class="st0" d="M228,268.3h62.2c4.1,0,7.5-3.4,7.5-7.5s-3.4-7.5-7.5-7.5H228c-4.1,0-7.5,3.4-7.5,7.5S223.9,268.3,228,268.3
				L228,268.3z"/>
			<path class="st0" d="M274.4,299.6c4.1,0,7.5-3.4,7.5-7.5s-3.4-7.5-7.5-7.5H228c-4.1,0-7.5,3.4-7.5,7.5s3.4,7.5,7.5,7.5H274.4z"/>
			<path class="st0" d="M179.1,108h-57.8c-10.5,0-19.1,8.6-19.1,19.1v57.8c0,10.5,8.6,19.1,19.1,19.1h57.8
				c10.5,0,19.1-8.6,19.1-19.1v-57.8C198.2,116.6,189.6,108,179.1,108L179.1,108z M183.2,184.9c0,2.3-1.8,4.1-4.1,4.1h-57.8
				c-2.3,0-4.1-1.8-4.1-4.1v-57.8c0-2.3,1.8-4.1,4.1-4.1h57.8c2.3,0,4.1,1.8,4.1,4.1V184.9z"/>
			<path class="st0" d="M179.1,228.5h-57.8c-10.5,0-19.1,8.6-19.1,19.1v57.8c0,10.5,8.6,19.1,19.1,19.1h57.8
				c10.5,0,19.1-8.6,19.1-19.1v-57.8C198.2,237,189.6,228.5,179.1,228.5z M183.2,305.3c0,2.3-1.8,4.1-4.1,4.1h-57.8
				c-2.3,0-4.1-1.8-4.1-4.1v-57.8c0-2.3,1.8-4.1,4.1-4.1h57.8c2.3,0,4.1,1.8,4.1,4.1V305.3z"/>
			<path class="st0" d="M179.1,348.9h-57.8c-10.5,0-19.1,8.6-19.1,19.1v57.8c0,10.5,8.6,19.1,19.1,19.1h57.8
				c10.5,0,19.1-8.6,19.1-19.1V368C198.2,357.4,189.6,348.9,179.1,348.9z M183.2,425.7c0,2.3-1.8,4.1-4.1,4.1h-57.8
				c-2.3,0-4.1-1.8-4.1-4.1V368c0-2.3,1.8-4.1,4.1-4.1h57.8c2.3,0,4.1,1.8,4.1,4.1V425.7z"/>
			<path class="st0" d="M465.3,128.3l-11.9-7.5c-6.2-3.9-13.5-5.2-20.7-3.6c-7.1,1.6-13.2,5.9-17.1,12.1l-10.9,17.3l-15.2,24
				l-17.1,27.1V85c0-7.8-6.3-14.1-14.1-14.1h-53.8v-15h72c6,0,10.9,4.9,10.9,10.9v65c0,4.1,3.4,7.5,7.5,7.5s7.5-3.4,7.5-7.5v-65
				c0-14.3-11.6-25.9-25.9-25.9H303c-3.1-7.4-10.4-12.7-18.9-12.7h-19.4v-7.6C264.7,9.3,255.4,0,244,0h-51.6
				c-11.4,0-20.7,9.3-20.7,20.7v7.6h-19.4c-8.5,0-15.8,5.2-18.9,12.7H59.9C45.6,40.9,34,52.5,34,66.8v419.4
				c0,14.3,11.6,25.9,25.9,25.9h316.6c14.3,0,25.9-11.6,25.9-25.9V317.9c0-4.1-3.4-7.5-7.5-7.5s-7.5,3.4-7.5,7.5v168.2
				c0,6-4.9,10.9-10.9,10.9H59.9c-6,0-10.9-4.9-10.9-10.9V66.8c0-6,4.9-10.9,10.9-10.9h72v15H78.1C70.3,70.9,64,77.2,64,85v383
				c0,7.8,6.3,14.1,14.1,14.1h280.2c7.8,0,14.1-6.3,14.1-14.1V326.4l75.3-119l0,0l15.2-23.9l10.9-17.3
				C481.8,153.3,478,136.4,465.3,128.3L465.3,128.3z M436,131.8c3.2-0.7,6.5-0.2,9.3,1.6l11.9,7.5c5.8,3.7,7.5,11.3,3.8,17.1
				l-6.9,10.9l-32.8-20.8l6.9-10.9C430,134.5,432.8,132.6,436,131.8L436,131.8z M293.9,422.2c-1.4,2.2-3,4.4-4.8,6.3
				c-2.4-3.2-5-6-8-8.5L421,199.3l10,6.3L293.9,422.2z M242.7,467c-0.1,0-0.1-0.1-0.1-0.1l0,0c16.3-67.5,8.3-34.6,10.6-44
				c9.7,1.6,18.8,7.1,24.8,15.7C238.2,470.6,243.2,466.5,242.7,467L242.7,467z M413.3,160.9l32.8,20.8L439,193l-32.8-20.8
				L413.3,160.9z M146.9,48.9c0-0.1,0-0.2,0-0.3v-0.1c0.1-2.9,2.5-5.2,5.4-5.2h21.5c7.1,0,12.9-5.8,12.9-12.9v-9.7
				c0-3.1,2.5-5.7,5.7-5.7H244c3.1,0,5.7,2.5,5.7,5.7v9.7c0,7.1,5.8,12.9,12.9,12.9h21.5c2.9,0,5.3,2.3,5.4,5.2v0.1
				c0,0.1,0,0.2,0,0.3v22H146.9V48.9z M79,85.9h278.3v135.4l-78.5,124.1c-2.2,3.5-1.2,8.1,2.3,10.4c3.5,2.2,8.1,1.2,10.4-2.3
				L398.2,185l10.1,6.4L268.5,412c-3.5-1.6-7.3-2.8-11.1-3.6c1-2.4,2.3-4.8,3.7-7l11.7-18.4c2.2-3.5,1.2-8.1-2.3-10.4
				c-3.5-2.2-8.1-1.2-10.4,2.3l-11.7,18.4c-3.9,6.1-6.7,12.7-8.3,19.7l0,0L228,463.3c-0.3,1.2-0.4,2.5-0.4,3.7H79V85.9z M357.3,467
				h-90.8l25.7-20.7c5.6-4.5,10.4-9.9,14.3-16l50.8-80.2V467z"/>
		</g>
	</g>
</g>
</svg>
