<?xml version="1.0" encoding="utf-8"?>
<!-- Generator: Adobe Illustrator 22.0.1, SVG Export Plug-In . SVG Version: 6.00 Build 0)  -->
<svg version="1.1" id="Слой_1" xmlns="http://www.w3.org/2000/svg" xmlns:xlink="http://www.w3.org/1999/xlink" x="0px" y="0px"
	 viewBox="0 0 50 50" style="enable-background:new 0 0 50 50;" xml:space="preserve">
<style type="text/css">
	.st0{fill:none;stroke:#EFEFEF;stroke-width:4;}
	.st1{fill:#EFEFEF;stroke:#EFEFEF;stroke-miterlimit:10;}
</style>
<g id="Oval_22_">
	<circle id="path-45_1_" class="st0" cx="25" cy="25" r="23"/>
</g>
<path id="Shape_22_" class="st1" d="M15.7,21.8c0.3,0.2,1.2,0.8,2.6,1.7c1.5,0.9,2.6,1.7,3.4,2.2c0.1,0.1,0.3,0.2,0.5,0.4
	c0.3,0.2,0.5,0.3,0.7,0.5c0.2,0.1,0.4,0.2,0.7,0.4c0.3,0.1,0.5,0.2,0.7,0.3c0.2,0.1,0.4,0.1,0.6,0.1l0,0l0,0c0.2,0,0.4,0,0.6-0.1
	s0.5-0.2,0.7-0.3c0.3-0.1,0.5-0.3,0.7-0.4s0.4-0.3,0.7-0.5c0.3-0.2,0.5-0.3,0.5-0.4c0.8-0.5,2.8-1.8,6-3.9c0.6-0.4,1.1-0.9,1.6-1.5
	c0.4-0.6,0.6-1.2,0.6-1.8c0-0.5-0.2-1-0.6-1.3c-0.4-0.4-0.9-0.6-1.4-0.6H15.6c-0.7,0-1.2,0.2-1.5,0.6c-0.4,0.4-0.5,0.9-0.5,1.5
	c0,0.5,0.2,1,0.7,1.6C14.7,21,15.2,21.5,15.7,21.8z M35.2,23.1c-2.8,1.8-4.9,3.1-6.4,4.1c-0.5,0.3-0.9,0.6-1.2,0.8
	c-0.3,0.2-0.7,0.4-1.2,0.6s-1,0.3-1.4,0.3l0,0l0,0c-0.4,0-0.9-0.1-1.4-0.3c-0.5-0.2-0.9-0.4-1.2-0.6c-0.3-0.2-0.7-0.4-1.2-0.8
	c-1.2-0.8-3.3-2.2-6.4-4.1c-0.5-0.3-0.9-0.6-1.3-1v9.4c0,0.5,0.2,1,0.6,1.3c0.4,0.4,0.9,0.6,1.5,0.6h18.9c0.6,0,1-0.2,1.5-0.6
	c0.4-0.4,0.6-0.8,0.6-1.3V22C36.1,22.4,35.7,22.8,35.2,23.1z"/>
</svg>
