<?xml version="1.0" encoding="utf-8"?>
<!-- Generator: Adobe Illustrator 22.0.1, SVG Export Plug-In . SVG Version: 6.00 Build 0)  -->
<svg version="1.1" id="Слой_7" xmlns="http://www.w3.org/2000/svg" xmlns:xlink="http://www.w3.org/1999/xlink" x="0px" y="0px"
	 viewBox="0 0 512 512" style="enable-background:new 0 0 512 512;" xml:space="preserve">
<style type="text/css">
	.st0{fill:none;stroke:#323441;stroke-width:20;stroke-linecap:round;stroke-miterlimit:10;}
	.st1{fill:#323441;stroke:#323441;stroke-linecap:round;stroke-linejoin:round;stroke-miterlimit:10;}
</style>
<line class="st0" x1="11" y1="502" x2="501" y2="502"/>
<line class="st0" x1="11" y1="186.5" x2="11" y2="502"/>
<line class="st0" x1="501" y1="186.5" x2="501" y2="502"/>
<line class="st0" x1="256" y1="14.3" x2="11" y2="186.5"/>
<line class="st0" x1="501" y1="186.5" x2="256" y2="14.3"/>
<line class="st0" x1="213.7" y1="176" x2="295.3" y2="175.7"/>
<path class="st1" d="M421.5,247.4h-331c-5.8,0-10.6,4.8-10.6,10.6v240.8c0,5.8,4.8,10.6,10.6,10.6h330.9c5.8,0,10.6-4.8,10.6-10.6
	V258C432.1,252.2,427.3,247.4,421.5,247.4z M394.9,488.5H117c-5.8,0-10.6-4.8-10.6-10.6s4.8-10.6,10.6-10.6h277.9
	c5.8,0,10.6,4.8,10.6,10.6S400.7,488.5,394.9,488.5z M394.9,441.9H117c-5.8,0-10.6-4.8-10.6-10.6c0-5.8,4.8-10.6,10.6-10.6h277.9
	c5.8,0,10.6,4.8,10.6,10.6S400.7,441.9,394.9,441.9z M106.4,337.9c0-5.8,4.8-10.6,10.6-10.6h277.9c5.8,0,10.6,4.8,10.6,10.6
	s-4.8,10.6-10.6,10.6H117C111.1,348.5,106.4,343.8,106.4,337.9z M394.9,395.2H117c-5.8,0-10.6-4.8-10.6-10.6
	c0-5.8,4.8-10.6,10.6-10.6h277.9c5.8,0,10.6,4.8,10.6,10.6C405.5,390.4,400.7,395.2,394.9,395.2z M395,301.9H117
	c-5.8,0-10.6-4.8-10.6-10.6c0-5.8,4.8-10.6,10.6-10.6h278c5.8,0,10.6,4.8,10.6,10.6S400.8,301.9,395,301.9z"/>
</svg>
