<?xml version="1.0" encoding="utf-8"?>
<!-- Generator: Adobe Illustrator 22.0.1, SVG Export Plug-In . SVG Version: 6.00 Build 0)  -->
<svg version="1.1" id="Слой_2_1_" xmlns="http://www.w3.org/2000/svg" xmlns:xlink="http://www.w3.org/1999/xlink" x="0px"
	 y="0px" viewBox="0 0 512 512" style="enable-background:new 0 0 512 512;" xml:space="preserve">
<style type="text/css">
	.st0{fill:none;stroke:#323441;stroke-width:12;stroke-miterlimit:10;}
	.st1{fill:none;stroke:#323441;stroke-width:12;stroke-linecap:round;stroke-miterlimit:10;}
</style>
<path class="st0" d="M406.8,477.7c0,11.4,0,22.9,0,34.3"/>
<path class="st0" d="M501.7,477.4c0,19,0,15.6-0.1,34.6"/>
<path class="st1" d="M402.2,477.7c34.3-0.1,68.7-0.2,103-0.3"/>
<line class="st1" x1="402.6" y1="428.9" x2="402.2" y2="477.7"/>
<path class="st1" d="M505.6,477.4c-0.1-16.2-0.1-32.4-0.2-48.6"/>
<line class="st1" x1="402.6" y1="428.9" x2="505.4" y2="428.8"/>
<path class="st1" d="M402.4,421.1c6.4-1.3,28.4-6.5,44.6-24.3c17-18.6,16.2-38.3,15.8-43.5"/>
<path class="st1" d="M361.8,396.1c6.4-1.5,29.2-7.6,45.1-26.7c14.8-17.8,14.5-35.9,14.1-41.6"/>
<path class="st1" d="M450.4,397.8"/>
<line class="st1" x1="361.8" y1="396.1" x2="402.4" y2="421.1"/>
<line class="st1" x1="421" y1="327.8" x2="462.9" y2="353.3"/>
<path class="st1" d="M289.8,354.7c6.4-1.3,28.4-6.5,44.6-24.3c17-18.6,19.2-36.5,18.8-41.7"/>
<path class="st1" d="M243.2,326c6.4-1.5,29.1-8.7,45-27.8c14.8-17.8,20.6-31.1,20.2-36.8"/>
<path class="st1" d="M337.8,331.4"/>
<line class="st1" x1="243.2" y1="326" x2="289.8" y2="354.7"/>
<line class="st1" x1="308.4" y1="261.4" x2="353.3" y2="288.7"/>
<line class="st1" x1="197.5" y1="203" x2="197.1" y2="246"/>
<line class="st1" x1="299.3" y1="205.4" x2="299.3" y2="250.1"/>
<path class="st1" d="M197.1,246c15.6-0.6,32.7-0.7,51.2,0c18.5,0.8,35.6,2.3,51,4.1"/>
<path class="st1" d="M197.5,203c15.3-1.1,32.4-1.7,51.2-1.3c18.6,0.4,35.5,1.8,50.6,3.6"/>
<line class="st1" x1="406.1" y1="420.2" x2="407" y2="428.9"/>
<path class="st1" d="M463,356.5c7.4,4.8,21,15,30.4,31.9c9.6,17.2,9.9,32.6,9.5,40.3"/>
<line class="st1" x1="295.7" y1="353.3" x2="361.9" y2="393.7"/>
<line class="st1" x1="353.3" y1="290.7" x2="420.4" y2="331.4"/>
<path class="st1" d="M200.6,245.4c-0.8,8.2-1.6,29.7,14.1,51.7c11,15.4,25.2,24.4,33.5,28.8"/>
<path class="st1" d="M296.8,249.8c0.2,1.7,0.9,4.6,3.2,7.7c2.8,3.8,6.6,5.8,8.4,6.7"/>
<path class="st1" d="M399.3,62c0.3,2.6,2.5,16.8,14,29.5c0,0,6.7,7.5,17,12.8c13.1,6.8,25,7.2,35.2,7.4c8.7,0.2,22.4-0.5,38.5-5.8"
	/>
<path class="st1" d="M376.3,67.8c1.7,8.7,8,35.5,31.6,50.7c14.8,9.5,30,10.3,45.2,11.2c22.7,1.2,41.2-3.2,52.6-6.9"/>
<path class="st1" d="M388.6,36.9c-6.1,5.7-7,13.5-2.6,18.9s12.2,6.1,13.4,6.2"/>
<path class="st1" d="M376.3,67.8c-8.6-4-12.4-12.6-9.1-20c3.1-7.1,12-11.7,21.4-10.8"/>
<line class="st1" x1="187.9" y1="139" x2="189.6" y2="151.1"/>
<path class="st1" d="M72.5,103c0.9,11.6,6,18.8,9.2,22.4c16.4,18.3,49.1,18.6,58.7,18.8c11.6,0.1,31.5-1.5,34.7-1.8
	c5.6-0.5,10.1-0.9,13.2-1.3"/>
<path class="st1" d="M52.5,105.1c0.4,6,2.9,31.5,27,46.5c21.2,13.2,47.3,11.1,67.7,9.4c17.8-1.5,32.1-5.4,41.5-8.7"/>
<path class="st1" d="M65,79c-4.4,6.7-4.4,14.6-0.4,19.5c2.6,3.1,6.1,4.2,7.9,4.5"/>
<path class="st1" d="M52.5,105.1c-8-6.6-8.5-17.5-3.4-23.1c3.6-3.9,10-5.1,15.9-3.1"/>
<path class="st1" d="M297.5,205.2c0.7-4.7,1.6-10.6,2.9-17.4c1.3-7,2.6-13,3.6-17.6c1.9-8.6,2.9-12.8,4.5-18.2
	c1.9-5.9,3.8-10.7,5.3-13.9"/>
<path class="st1" d="M341.2,120.3c-2.7,2.9-6.6,6.7-12.1,10.3c-5.7,3.7-11.1,6-15.3,7.5"/>
<path class="st1" d="M200.3,202.9c0.9-9.4,1.1-20.7-0.4-33.4c-1.4-11.4-3.9-21.5-6.6-29.9"/>
<path class="st1" d="M140.6,94.9c1.4,5.2,5.6,17.8,19.2,29.1c12.8,10.6,27.1,14.2,33.4,15.5"/>
<path class="st1" d="M133.1,68.6c-1.7,0.9-6.8,3.8-7.9,8.8c-1.5,6.6,4.5,14.4,15.4,17.6"/>
<path class="st1" d="M251.6,54.1c-7,2.6-11.5,8.3-11.3,14.2c0.2,7.2,7.3,13.6,16.9,14.7"/>
<path class="st1" d="M341.2,120.3c-3.2,0.5-7.5,1.1-12.7,1.5c-8.8,0.7-15.6,0.7-17.8,0.7c-10.1-0.2-29.3-0.4-41.8-10.8
	c-11.8-9.8-12.1-23.6-11.9-28.6"/>
<line class="st1" x1="398.1" y1="114.1" x2="342.3" y2="120.3"/>
<path class="st1" d="M388.6,56.8C427.4,51.5,466.2,46.3,505,41"/>
<path class="st1" d="M386.8,38.8c39.8-5,79.7-10.1,119.5-15.1"/>
<line class="st1" x1="244.9" y1="77.2" x2="368.4" y2="61.3"/>
<line class="st1" x1="247.2" y1="56.4" x2="374.4" y2="40"/>
<path class="st1" d="M133.1,68.6c39.5-4.8,78.9-9.6,118.4-14.4"/>
<line class="st1" x1="65.7" y1="99.5" x2="133" y2="91.5"/>
<line class="st1" x1="61" y1="80.6" x2="126.5" y2="73"/>
<path class="st1" d="M79.5,151.6c-7.2,1.4-13,1-17.1,0.2c-19.8-3.7-35.1-21.8-39.3-45.2"/>
<path class="st1" d="M13,105.1c11.7-1.3,23.3-2.6,35-3.9"/>
<path class="st1" d="M13.2,86.4C25.1,85,37.1,83.5,49,82.1"/>
<path class="st1" d="M13,105.1c-0.7-0.5-5.1-3.8-5.2-9.2c-0.1-5.7,4.7-9.1,5.4-9.6"/>
</svg>
