<?xml version="1.0" encoding="utf-8"?>
<!-- Generator: Adobe Illustrator 22.0.1, SVG Export Plug-In . SVG Version: 6.00 Build 0)  -->
<svg version="1.1" id="Слой_1" xmlns="http://www.w3.org/2000/svg" xmlns:xlink="http://www.w3.org/1999/xlink" x="0px" y="0px"
	 viewBox="0 0 50 50" style="enable-background:new 0 0 50 50;" xml:space="preserve">
<style type="text/css">
	.st0{fill:none;stroke:#F2EFED;stroke-width:4;}
	.st1{fill:#F2EFED;}
</style>
<g id="Oval_3_">
	<circle id="path-7_1_" class="st0" cx="25" cy="25" r="23"/>
</g>
<path id="Shape_3_" class="st1" d="M25,15.6c3.1,0,3.4,0,4.6,0.1c1.1,0.1,1.7,0.2,2.1,0.4c0.5,0.2,0.9,0.5,1.3,0.9
	c0.4,0.4,0.7,0.8,0.9,1.3c0.2,0.4,0.3,1,0.4,2.1c0.1,1.2,0.1,1.6,0.1,4.6s0,3.4-0.1,4.6c-0.1,1.1-0.2,1.7-0.4,2.1
	c-0.2,0.5-0.5,0.9-0.9,1.3c-0.4,0.4-0.8,0.7-1.3,0.9c-0.4,0.2-1,0.3-2.1,0.4c-1.2,0.1-1.6,0.1-4.6,0.1s-3.4,0-4.6-0.1
	c-1.1-0.1-1.7-0.2-2.1-0.4c-0.5-0.2-0.9-0.5-1.3-0.9s-0.7-0.8-0.9-1.3c-0.2-0.4-0.3-1-0.4-2.1c-0.1-1.2-0.1-1.6-0.1-4.6
	s0-3.4,0.1-4.6c0.1-1.1,0.2-1.7,0.4-2.1c0.2-0.5,0.5-0.9,0.9-1.3s0.8-0.7,1.3-0.9c0.4-0.2,1-0.3,2.1-0.4
	C21.6,15.6,21.9,15.6,25,15.6 M25,13.5c-3.1,0-3.5,0-4.7,0.1s-2.1,0.3-2.8,0.5c-0.8,0.3-1.4,0.7-2,1.3c-0.6,0.6-1,1.3-1.3,2
	s-0.5,1.6-0.5,2.8c-0.1,1.2-0.1,1.6-0.1,4.7s0,3.5,0.1,4.7s0.3,2.1,0.5,2.8c0.3,0.8,0.7,1.4,1.3,2s1.3,1,2,1.3s1.6,0.5,2.8,0.5
	c1.2,0.1,1.6,0.1,4.7,0.1s3.5,0,4.7-0.1s2.1-0.3,2.8-0.5c0.8-0.3,1.4-0.7,2-1.3s1-1.3,1.3-2s0.5-1.6,0.5-2.8
	c0.1-1.2,0.1-1.6,0.1-4.7s0-3.5-0.1-4.7s-0.3-2.1-0.5-2.8c-0.3-0.8-0.7-1.4-1.3-2s-1.3-1-2-1.3s-1.6-0.5-2.8-0.5
	C28.5,13.5,28.1,13.5,25,13.5z M25,19.1c-3.3,0-5.9,2.6-5.9,5.9s2.6,5.9,5.9,5.9s5.9-2.6,5.9-5.9S28.3,19.1,25,19.1z M25,28.9
	c-2.1,0-3.8-1.7-3.8-3.8s1.7-3.8,3.8-3.8s3.8,1.7,3.8,3.8S27.1,28.9,25,28.9z M32.5,18.8c0,0.8-0.6,1.4-1.4,1.4s-1.4-0.6-1.4-1.4
	s0.6-1.4,1.4-1.4C31.9,17.5,32.5,18.1,32.5,18.8z"/>
</svg>
