<svg xmlns="http://www.w3.org/2000/svg" viewBox="0 0 113.43 102.41"><title>logo_ODK</title><g id="Слой_3" data-name="Слой 3"><polyline points="49.53 28.02 49.53 41.91 39.58 41.91 39.58 37.96 49.53 28.01" style="fill:#815a48;opacity:0.5"/><polygon points="90.98 78.35 83.41 78.35 76.67 69.11 90.98 69.11 90.98 78.35" style="fill:#815a48;opacity:0.5"/><polygon points="83.28 9.19 76 1.91 49.85 28.07 49.85 41.91 60.08 41.91 60.08 32.4 83.28 9.19" style="fill:#323441;opacity:0.5"/><polyline points="83.86 9.61 60.74 32.73 60.74 41.91 66.16 41.91 83.92 24.88 112.23 51.78 112.23 37.97 83.86 9.6" style="fill:#b0bdcc;opacity:0.5"/><polygon points="101.35 89.01 101.33 57.9 90.72 47.45 90.82 78.43 83.49 78.43 88.41 85.11 39.87 85.11 39.53 88.92 101.35 89.01" style="fill:#b7aa9f;opacity:0.5"/><polyline points="112.19 88.87 112.11 53.19 84.05 25.12 76.59 32.59 101.61 57.63 101.61 88.87 112.2 88.87" style="fill:#f2efed;opacity:0.5"/><line x1="39.61" y1="85.11" x2="39.61" y2="90.11" style="fill:none;stroke:#fff;stroke-miterlimit:10;stroke-width:2px"/><line x1="38.61" y1="89.11" x2="113.42" y2="89.11" style="fill:none;stroke:#fff;stroke-miterlimit:10;stroke-width:2px"/><line x1="112.43" y1="37.42" x2="112.42" y2="90.11" style="fill:none;stroke:#fff;stroke-miterlimit:10;stroke-width:2px"/><line x1="75.95" y1="1.36" x2="112.72" y2="38.13" style="fill:none;stroke:#fff;stroke-miterlimit:10;stroke-width:2px"/><line x1="76.73" y1="0.71" x2="39.32" y2="38.12" style="fill:none;stroke:#fff;stroke-miterlimit:10;stroke-width:2px"/><line x1="39.61" y1="37.41" x2="39.61" y2="41.91" style="fill:none;stroke:#fff;stroke-miterlimit:10;stroke-width:2px"/><text transform="translate(0 82.17) scale(0.83 1)" style="font-size:49.708740234375px;fill:#fff;font-family:Krungthep, Krungthep">ODK</text><line x1="49.4" y1="27.91" x2="49.4" y2="41.91" style="fill:none;stroke:#fff;stroke-miterlimit:10;stroke-width:2px"/><line x1="101.43" y1="57.31" x2="101.43" y2="89.99" style="fill:none;stroke:#fff;stroke-miterlimit:10;stroke-width:2px"/><line x1="90.43" y1="47.1" x2="90.43" y2="79.11" style="fill:none;stroke:#fff;stroke-miterlimit:10;stroke-width:2px"/><line x1="76.02" y1="32.32" x2="101.72" y2="58.02" style="fill:none;stroke:#fff;stroke-miterlimit:10;stroke-width:2px"/><line x1="83.14" y1="9.89" x2="60.11" y2="32.91" style="fill:none;stroke:#fff;stroke-miterlimit:10;stroke-width:2px"/><line x1="60.4" y1="41.91" x2="60.4" y2="32.21" style="fill:none;stroke:#fff;stroke-miterlimit:10;stroke-width:2px"/><line x1="83.75" y1="24.44" x2="112.36" y2="53.06" style="fill:none;stroke:#fff;stroke-miterlimit:10;stroke-width:2px"/><path d="M81.29,23.88,64.07,41.1Z" transform="translate(3.42 0.11)" style="fill:none;stroke:#fff;stroke-miterlimit:10;stroke-width:2px"/><polygon points="66.79 40.5 65.38 41.91 68.2 41.91 66.79 40.5" style="fill:#fff"/><line x1="77.12" y1="68.74" x2="91.12" y2="68.74" style="fill:none;stroke:#fff;stroke-miterlimit:10;stroke-width:2px"/><path d="M72.22,67.64l.76,1,.72,1v-2H72.22" transform="translate(3.42 0.11)" style="fill:#fff"/><line x1="83.97" y1="78.1" x2="91.27" y2="78.1" style="fill:none;stroke:#fff;stroke-miterlimit:10;stroke-width:2px"/><path d="M79.07,77l.75,1,.73,1V77H79.07" transform="translate(3.42 0.11)" style="fill:#fff"/></g></svg>