<?xml version="1.0" encoding="utf-8"?>
<!-- Generator: Adobe Illustrator 22.0.1, SVG Export Plug-In . SVG Version: 6.00 Build 0)  -->
<svg version="1.1" id="Слой_1" xmlns="http://www.w3.org/2000/svg" xmlns:xlink="http://www.w3.org/1999/xlink" x="0px" y="0px"
	 viewBox="0 0 110.1 90.1" style="enable-background:new 0 0 110.1 90.1;" xml:space="preserve">
<style type="text/css">
	.st0{opacity:0.5;fill:#815A48;enable-background:new    ;}
	.st1{opacity:0.5;fill:#323441;enable-background:new    ;}
	.st2{opacity:0.5;fill:#B0BDCC;enable-background:new    ;}
	.st3{opacity:0.5;fill:#B7AA9F;enable-background:new    ;}
	.st4{opacity:0.5;fill:#F2EFED;enable-background:new    ;}
	.st5{fill:none;stroke:#FFFFFF;stroke-width:2;stroke-miterlimit:10;}
	.st6{fill:#FFFFFF;}
	.st7{font-family:'Krungthep';}
	.st8{font-size:49.7087px;}
</style>
<title>logo_ODK</title>
<g id="Слой_3">
	<polyline class="st0" points="46.2,28 46.2,41.9 36.3,41.9 36.3,38 46.2,28 	"/>
	<polygon class="st0" points="87.7,78.3 80.1,78.3 73.4,69.1 87.7,69.1 	"/>
	<polygon class="st1" points="80,9.2 72.7,1.9 46.5,28.1 46.5,41.9 56.8,41.9 56.8,32.4 	"/>
	<polyline class="st2" points="80.5,9.6 57.4,32.7 57.4,41.9 62.8,41.9 80.6,24.9 108.9,51.8 108.9,38 80.5,9.6 	"/>
	<polygon class="st3" points="98,89 98,57.9 87.4,47.5 87.5,78.4 80.2,78.4 85.1,85.1 36.6,85.1 36.2,88.9 	"/>
	<polyline class="st4" points="108.9,88.9 108.8,53.2 80.7,25.1 73.3,32.6 98.3,57.6 98.3,88.9 108.9,88.9 	"/>
	<line class="st5" x1="36.3" y1="85.1" x2="36.3" y2="90.1"/>
	<line class="st5" x1="35.3" y1="89.1" x2="110.1" y2="89.1"/>
	<line class="st5" x1="109.1" y1="37.4" x2="109.1" y2="90.1"/>
	<line class="st5" x1="72.6" y1="1.4" x2="109.4" y2="38.1"/>
	<line class="st5" x1="73.4" y1="0.7" x2="36" y2="38.1"/>
	<line class="st5" x1="36.3" y1="37.4" x2="36.3" y2="41.9"/>
	<text transform="matrix(0.83 0 0 1 -3.3125 82.1699)" class="st6 st7 st8">ODK</text>
	<line class="st5" x1="46.1" y1="27.9" x2="46.1" y2="41.9"/>
	<line class="st5" x1="98.1" y1="57.3" x2="98.1" y2="90"/>
	<line class="st5" x1="87.1" y1="47.1" x2="87.1" y2="79.1"/>
	<line class="st5" x1="72.7" y1="32.3" x2="98.4" y2="58"/>
	<line class="st5" x1="79.8" y1="9.9" x2="56.8" y2="32.9"/>
	<line class="st5" x1="57.1" y1="41.9" x2="57.1" y2="32.2"/>
	<line class="st5" x1="80.4" y1="24.4" x2="109" y2="53.1"/>
	<path class="st5" d="M81.4,24L64.2,41.2L81.4,24z"/>
	<polygon class="st6" points="63.5,40.5 62.1,41.9 64.9,41.9 	"/>
	<line class="st5" x1="73.8" y1="68.7" x2="87.8" y2="68.7"/>
	<path class="st6" d="M72.3,67.8l0.8,1l0.7,1v-2H72.3"/>
	<line class="st5" x1="80.7" y1="78.1" x2="88" y2="78.1"/>
	<path class="st6" d="M79.2,77.1l0.8,1l0.7,1v-2H79.2"/>
</g>
</svg>
