<?xml version="1.0" encoding="utf-8"?>
<!-- Generator: Adobe Illustrator 22.0.1, SVG Export Plug-In . SVG Version: 6.00 Build 0)  -->
<svg version="1.1" id="Layer_1" xmlns="http://www.w3.org/2000/svg" xmlns:xlink="http://www.w3.org/1999/xlink" x="0px" y="0px"
	 viewBox="0 0 374 512" style="enable-background:new 0 0 374 512;" xml:space="preserve">
<g>
	<g>
		<path d="M187,0C84.8,0,1.6,83.2,1.6,185.4c0,126.9,165.9,313.2,173,321c6.6,7.4,18.2,7.4,24.8,0c7.1-7.9,173-194.1,173-321
			C372.4,83.2,289.2,0,187,0z M187,469.7C131.2,403.4,35,272.5,35,185.4c0-83.8,68.2-152,152-152s152,68.2,152,152
			C339,272.5,242.9,403.4,187,469.7z"/>
	</g>
</g>
<g>
	<g>
		<path d="M187,92.1c-51.4,0-93.3,41.9-93.3,93.3s41.9,93.3,93.3,93.3s93.3-41.9,93.3-93.3S238.4,92.1,187,92.1z M187,245.3
			c-33,0-59.9-26.9-59.9-59.9s26.9-59.9,59.9-59.9s59.9,26.9,59.9,59.9S220,245.3,187,245.3z"/>
	</g>
</g>
</svg>
