<?xml version="1.0" encoding="utf-8"?>
<!-- Generator: Adobe Illustrator 22.0.1, SVG Export Plug-In . SVG Version: 6.00 Build 0)  -->
<svg version="1.1" id="Слой_1" xmlns="http://www.w3.org/2000/svg" xmlns:xlink="http://www.w3.org/1999/xlink" x="0px" y="0px"
	 viewBox="0 0 512 512" style="enable-background:new 0 0 512 512;" xml:space="preserve">
<style type="text/css">
	.st0{fill:none;stroke:#323441;stroke-width:2;stroke-linecap:round;stroke-miterlimit:10;}
	.st1{fill:none;stroke:#323441;stroke-width:15;stroke-linecap:round;stroke-miterlimit:10;}
</style>
<g id="Слой_2_1_">
	<line class="st0" x1="78" y1="256" x2="178" y2="256"/>
	<line class="st0" x1="256" y1="433.9" x2="256" y2="333.9"/>
	<line class="st0" x1="256" y1="178" x2="256" y2="78"/>
	<line class="st0" x1="334" y1="256" x2="434" y2="256"/>
</g>
<g id="Слой_4">
	<path class="st1" d="M31.2,369.9c0,2.2,0.2,12.6,8.7,21.3c8.8,9,19.9,9.3,22,9.4"/>
	<path class="st1" d="M113,370c-1.1,22.1-20.8,52.9-52.5,52.9C28.7,422.9,8.9,392.1,8,370c-0.5-13.7,6.2-26.5,11.2-36
		c3.9-7.5,8.9-13.8,18.8-26.4c15.8-20.1,21.6-22.6,22.2-23.7c0-0.1,0.3-0.5,0.6-0.5c0.4,0,0.6,0.6,0.7,0.7c0.6,1.2,8,6.9,20.9,22.9
		c10.1,12.5,15.2,18.7,19.4,26.6C106.5,342.1,113.7,355.5,113,370z"/>
	<ellipse class="st1" cx="197.4" cy="472.5" rx="13.8" ry="13.7"/>
	<ellipse class="st1" cx="197.4" cy="472.5" rx="31.6" ry="31.2"/>
	<line class="st1" x1="181.7" y1="368.8" x2="181.7" y2="423.9"/>
	<path class="st1" d="M181.7,341.2c0,4,0,7.9,0,11.9"/>
	<line class="st1" x1="128.1" y1="335.8" x2="163.9" y2="335.6"/>
	<line class="st1" x1="165.8" y1="472.5" x2="165.4" y2="310.5"/>
	<line class="st1" x1="229" y1="472.5" x2="228.6" y2="310.5"/>
	<path class="st1" d="M165.4,310.5c2.8-15.4,16.5-26.5,32.1-26.3c15.2,0.2,28.3,11.3,31,26.3"/>
	<line class="st1" x1="8.4" y1="504.3" x2="8.3" y2="425.8"/>
	<line class="st1" x1="197.4" y1="503.7" x2="8.4" y2="504.3"/>
</g>
<g id="Слой_5">
	<path class="st1" d="M407.2,31.2c2.2-3.9,6.3-9.9,13.2-14.7c11.8-8.2,24.2-8.1,35.5-8c11.2,0.1,24.4,0.3,36.4,9.3
		c6.3,4.7,10.1,10.1,12.3,13.9"/>
	<line class="st1" x1="407.2" y1="31.2" x2="504.6" y2="31.7"/>
	<line class="st1" x1="442.4" y1="31.4" x2="442.8" y2="193.7"/>
	<line class="st1" x1="466.6" y1="31.3" x2="467" y2="193.6"/>
	<line class="st1" x1="456.2" y1="228.5" x2="442.8" y2="193.7"/>
	<line class="st1" x1="467" y1="193.6" x2="456.2" y2="228.5"/>
	<line class="st1" x1="284.6" y1="56.4" x2="383.5" y2="56.3"/>
	<line class="st1" x1="299.6" y1="33.3" x2="368.2" y2="33.3"/>
	<path class="st1" d="M318.4,56.3c0.1,50.9,0.1,101.7,0.2,152.6"/>
	<path class="st1" d="M349.5,56.3c0.1,50.9,0.1,101.7,0.2,152.6"/>
	<line class="st1" x1="334" y1="228.4" x2="318.5" y2="208.9"/>
	<line class="st1" x1="349.7" y1="208.9" x2="334" y2="228.4"/>
	<line class="st1" x1="311.4" y1="196.6" x2="357.1" y2="180.5"/>
	<line class="st1" x1="311.1" y1="175.2" x2="356.8" y2="159.1"/>
	<line class="st1" x1="311.4" y1="154.4" x2="357.1" y2="138.3"/>
	<line class="st1" x1="311.2" y1="133" x2="356.9" y2="116.9"/>
	<line class="st1" x1="311.4" y1="112.5" x2="357.1" y2="96.4"/>
	<line class="st1" x1="308.7" y1="9.2" x2="359.6" y2="9.5"/>
	<path class="st1" d="M284.6,56.4c-0.1-4.5,1.1-7.5,2-9.3c0.7-1.3,1.6-2.6,6.3-7.4c2.7-2.7,5-4.9,6.7-6.4"/>
	<path class="st1" d="M308.7,9.2c-0.4,1.6-1,4-1.7,7.1c-1.4,5.9-1.6,7-2.3,8.6c-0.8,2.1-2.3,5.1-5.2,8.3"/>
	<path class="st1" d="M383.5,56.3c-0.1-4.4-1.3-7.4-2.3-9.2c-0.6-1.1-1.5-2.6-6.3-7.4c-2.6-2.6-4.9-4.8-6.7-6.4"/>
	<path class="st1" d="M359.6,9.5c0.2,1.7,0.6,4,1.2,6.8c0.8,4,1.3,6.2,2.3,8.6c0.8,2.1,2.3,5.1,5.2,8.3"/>
</g>
<g id="Слой_6">
	<line class="st1" x1="283.6" y1="504" x2="503.6" y2="503.5"/>
	<line class="st1" x1="503.6" y1="350.6" x2="503.6" y2="503.5"/>
	<line class="st1" x1="283.6" y1="504" x2="503.6" y2="350.6"/>
	<line class="st1" x1="325.5" y1="503.9" x2="503.6" y2="380.4"/>
	<line class="st1" x1="423.1" y1="457" x2="423.4" y2="503.5"/>
	<line class="st1" x1="344.4" y1="370.3" x2="345.2" y2="461.1"/>
	<line class="st1" x1="423.3" y1="370.3" x2="423.3" y2="404.3"/>
	<line class="st1" x1="334.5" y1="370.3" x2="432.1" y2="370.3"/>
	<line class="st1" x1="334.5" y1="348.6" x2="432.1" y2="348.6"/>
	<line class="st1" x1="334.5" y1="327.8" x2="432.1" y2="327.8"/>
	<line class="st1" x1="334.5" y1="308.1" x2="432.1" y2="308.1"/>
	<path class="st1" d="M351.2,284.1c21.5,0,42.9-0.1,64.4-0.1"/>
	<path class="st1" d="M334.5,308.1c0.1-2.6,0.9-12.7,9.1-19.6c2.7-2.3,5.4-3.6,7.7-4.4"/>
	<path class="st1" d="M432.1,308.1c-0.2-3-1.4-12-8.7-19c-2.7-2.6-5.5-4.2-7.8-5.2"/>
	<line class="st1" x1="355.3" y1="308.1" x2="355.9" y2="370.3"/>
	<line class="st1" x1="411.6" y1="307.7" x2="412.1" y2="369.9"/>
</g>
<g id="Слой_3">
	<line class="st1" x1="8.2" y1="229.8" x2="52.4" y2="71"/>
	<line class="st1" x1="98" y1="228.5" x2="52.4" y2="71"/>
	<line class="st1" x1="228.2" y1="228.7" x2="98" y2="228.5"/>
	<line class="st1" x1="183.2" y1="69.2" x2="52.6" y2="70.1"/>
	<line class="st1" x1="228.2" y1="228.7" x2="183.2" y2="69.2"/>
	<line class="st1" x1="140.5" y1="69.4" x2="184.6" y2="228.6"/>
	<line class="st1" x1="96.9" y1="69.8" x2="141.1" y2="228.6"/>
	<path class="st1" d="M33.2,9.1c57.5-0.1,115-0.2,172.5-0.3"/>
	<line class="st1" x1="46.6" y1="41.5" x2="217.2" y2="41.2"/>
	<path class="st1" d="M19.3,41.6c0.6-4.1,1.8-9.8,4.1-16.1C25.8,19,29.3,9.3,33.3,9c4.8-0.4,10.1,13,13.5,32.4"/>
	<path class="st1" d="M217.2,41.2c-1.4-6-2.8-11.3-4.1-15.8c-1.5-5.2-2.6-8.8-4.7-12.6c-1-1.7-1.9-3.1-2.6-4"/>
</g>
</svg>
