<?xml version="1.0" encoding="utf-8"?>
<!-- Generator: Adobe Illustrator 22.0.1, SVG Export Plug-In . SVG Version: 6.00 Build 0)  -->
<svg version="1.1" id="Слой_1" xmlns="http://www.w3.org/2000/svg" xmlns:xlink="http://www.w3.org/1999/xlink" x="0px" y="0px"
	 viewBox="0 0 512 512" style="enable-background:new 0 0 512 512;" xml:space="preserve">
<style type="text/css">
	.st0{fill:none;stroke:#323441;stroke-width:20;stroke-linecap:round;stroke-miterlimit:10;}
	.st1{fill:#323441;stroke:#323441;stroke-width:20;stroke-linecap:round;stroke-miterlimit:10;}
	.st2{stroke:#323441;stroke-width:20;stroke-linecap:round;stroke-miterlimit:10;}
	.st3{fill:#323441;}
</style>
<g id="Слой_4">
	<line class="st0" x1="135" y1="198.5" x2="209" y2="275.5"/>
	<line class="st0" x1="10.6" y1="325.6" x2="132.8" y2="200.8"/>
	<polyline class="st1" points="213.5,275.5 269,219 139,194.5 	"/>
	<path class="st2" d="M154.7,342.9C207.2,290,274.5,222.3,327,169.5"/>
	<path class="st2" d="M501.5,342.9c-53.3-53-121.1-120.4-174.5-173.4"/>
	<rect x="116.5" y="264" class="st3" width="15.8" height="15.8"/>
	<rect x="134.3" y="264" class="st3" width="15.8" height="15.8"/>
	<rect x="116.5" y="282" class="st3" width="15.8" height="15.8"/>
	<rect x="134.3" y="282" class="st3" width="15.8" height="15.8"/>
	<rect x="298.3" y="259.9" class="st3" width="28.8" height="28.8"/>
	<rect x="330.3" y="259.9" class="st3" width="28.8" height="28.8"/>
	<rect x="298.3" y="291.9" class="st3" width="28.8" height="28.8"/>
	<rect x="330.3" y="291.9" class="st3" width="28.8" height="28.8"/>
</g>
</svg>
