<?xml version="1.0" encoding="utf-8"?>
<!-- Generator: Adobe Illustrator 22.0.1, SVG Export Plug-In . SVG Version: 6.00 Build 0)  -->
<svg version="1.1" id="Слой_1" xmlns="http://www.w3.org/2000/svg" xmlns:xlink="http://www.w3.org/1999/xlink" x="0px" y="0px"
	 viewBox="0 0 64 64" style="enable-background:new 0 0 64 64;" xml:space="preserve">
<style type="text/css">
	.st0{fill:#89C2F0;}
</style>
<g id="Layer_32">
	<path class="st0" d="M32.5,19.3C25,22,24.7,32.9,32,36c7.2,3.3,15.1-4.1,12.1-11.5C42.4,19.9,37.2,17.5,32.5,19.3L32.5,19.3z
		 M38.2,34.3c-8.8,3-13.6-9.6-5-13.2C42,18.1,46.8,30.7,38.2,34.3L38.2,34.3z"/>
	<path class="st0" d="M35.7,57.2h-19c-0.6,0-1,0.4-1,1s0.4,1,1,1h19c0.6,0,1-0.4,1-1S36.3,57.2,35.7,57.2z"/>
	<path class="st0" d="M9.5,57.2H4c-0.6,0-1,0.4-1,1s0.4,1,1,1h5.5c0.6,0,1-0.4,1-1S10,57.2,9.5,57.2z"/>
	<path class="st0" d="M48.7,8.6c0-0.4-0.1-0.8-0.2-1.1l0,0c-1.9-4.7-9-2.7-8,2.3c-14.6-4-27.8,11-21.9,25.1l-2.1,0.8
		c-0.5,0.2-0.8,0.8-0.6,1.3l0,0l2.6,6.8c0.2,0.5,0.8,0.8,1.3,0.6l2.1-0.8l0.9,2.4l-12.2,4.6c-0.5,0.2-0.8,0.8-0.6,1.3l1.5,4l1.1,2.8
		c0.2,0.5,0.8,0.7,1.3,0.5c0.4-0.2,0.6-0.7,0.5-1.2l-0.7-1.8l28.6-10.9C56.1,40,58.5,21,46.6,12.6c0.9-0.4,1.5-1.2,1.9-2.1
		c6.1,2.1,10.6,9,10.6,17.2c0,0.6,0.4,1,1,1s1-0.4,1-1C61,18.5,55.8,10.8,48.7,8.6z M21.1,41.7l-1.2,0.5L18,37.3l1.2-0.5
		C19.3,36.9,21,41.3,21.1,41.7z M13,54.2l-0.8-2.1l11.2-4.3l0.8,2.1L13,54.2z M51.2,21.8c3.3,8.6-1,18.2-9.6,21.4l-15.5,5.9
		c-0.9-2.3-4.6-12-5.4-14.1c-6.5-14,7.6-28.6,21.7-22.4c0.2,0.1,0.4,0.2,0.7,0.3C46.8,14.7,49.7,17.9,51.2,21.8z M45.3,11
		c-0.5,0.2-1,0.2-1.5,0c-0.2-0.1-0.4-0.2-0.6-0.3c-2.9-2.4,1.5-6,3.3-2.7c-1-0.1-2.9-0.7-3,0.8c0.1,1.5,1.9,0.9,2.9,1.2
		C46.2,10.5,45.8,10.8,45.3,11z"/>
</g>
</svg>
