<?xml version="1.0" encoding="utf-8"?>
<!-- Generator: Adobe Illustrator 22.0.1, SVG Export Plug-In . SVG Version: 6.00 Build 0)  -->
<svg version="1.1" id="Слой_1" xmlns="http://www.w3.org/2000/svg" xmlns:xlink="http://www.w3.org/1999/xlink" x="0px" y="0px"
	 viewBox="0 0 50 50" style="enable-background:new 0 0 50 50;" xml:space="preserve">
<style type="text/css">
	.st0{fill:none;stroke:#F2EFED;stroke-width:4;}
	.st1{fill:#F2EFED;}
</style>
<g id="Oval_21_">
	<circle id="path-43_1_" class="st0" cx="25" cy="25" r="23"/>
</g>
<path id="Shape_21_" class="st1" d="M30.4,27.3c-1.5,1.5-1.5,3.1-3.1,3.1c-1.5,0-3.1-1.5-4.6-3.1c-1.5-1.5-3.1-3.1-3.1-4.6
	s1.5-1.5,3.1-3.1c1.5-1.5-3.1-6.1-4.6-6.1s-4.6,4.6-4.6,4.6c0,3.1,3.2,9.3,6.1,12.3c3,3,9.2,6.1,12.3,6.1c0,0,4.6-3.1,4.6-4.6
	C36.5,30.4,31.9,25.8,30.4,27.3"/>
</svg>
