<?xml version="1.0" encoding="utf-8"?>
<!-- Generator: Adobe Illustrator 22.0.1, SVG Export Plug-In . SVG Version: 6.00 Build 0)  -->
<svg version="1.1" id="Слой_1" xmlns="http://www.w3.org/2000/svg" xmlns:xlink="http://www.w3.org/1999/xlink" x="0px" y="0px"
	 viewBox="0 0 511 511" style="enable-background:new 0 0 511 511;" xml:space="preserve">
<style type="text/css">
	.st0{fill:#3B5998;}
</style>
<path class="st0" d="M476.3,267c-23.5-23.4-50.6-1.5-50.6-1.5V142.4c0-4.1-3.3-7.5-7.5-7.5c-4.1,0-7.5,3.4-7.5,7.5V276
	c0,0-35.7,28.1-51,35V89.4c0-10.3,8.4-18.7,18.7-18.7H392c10.3,0,18.7,8.4,18.7,18.7v22.3c0,4.1,3.3,7.5,7.5,7.5
	c4.1,0,7.5-3.3,7.5-7.5V89.4c0-18.6-15.1-33.6-33.6-33.6h-13.7c-18.6,0-33.6,15.1-33.6,33.6v227.5c-4.5,1.3-9,2.1-13.7,2.5V161.7
	c0-18.6-15.2-33.8-33.8-33.8h-13.3c-18.6,0-33.8,15.2-33.8,33.8v76.3l-13.7,7.3v-25.4c0-16.8-13.7-30.4-30.4-30.4h-20.1
	c-16.8,0-30.4,13.7-30.4,30.4v68.4l-24.4,13l-68.6,19.6c-11.9,3.4-21.9,11.2-28.1,22c-6.2,10.8-7.8,23.3-4.7,35.4l7.7,29.5
	c1,4,5.1,6.4,9.1,5.4c4-1,6.4-5.1,5.4-9.1L44,374.4c-4.5-17.1,5.4-34.4,22.4-39.2l62.7-17.9l47.2,125.9c3.2,8.4,2.7,32.5-22.3,41.3
	l-47.4,10.8c-16.5,3.8-32.8-6.2-37.1-22.6l-9.6-37c-1-4-5.1-6.4-9.1-5.4c-4,1-6.4,5.1-5.4,9.1l9.6,37c5.4,20.8,23.9,34.6,44.5,34.6
	c15.1,0,57.8-11.9,57.8-11.9c13-2.9,24.1-11.4,30.4-23.1c5.2-9.7,6.8-20.8,4.5-31.4l164.1-40.2c13.6-3.3,26.4-9.8,37.2-18.6
	l79.8-65.6C497.7,298.6,483.4,274.1,476.3,267z M283.8,142.8h13.3c10.4,0,18.8,8.5,18.8,18.8v158.2l-47.2,0c-4.3,0-1.3-2.9-1.1-3.1
	l13.6-11c12.7-10.3,21-24.6,24.6-42.5c2.3-11.4-2-22.7-11.3-29.7c-8.7-6.5-19.8-7.7-29.6-3.4v-68.4
	C265,151.3,273.4,142.8,283.8,142.8z M170.3,219.8c0-8.5,6.9-15.5,15.5-15.5h20.1c8.5,0,15.5,6.9,15.5,15.5v33.3l-51,27.1
	L170.3,219.8L170.3,219.8z M463.9,308.6L384,374.2c-9.1,7.5-19.9,12.9-31.3,15.7l-165.3,40.5L143,311.7l126.9-67.4
	c5.2-2.7,11-2.3,15.7,1.2s6.8,9,5.6,14.7c-2.9,14.4-9.5,25.8-19.4,33.8l-13.6,11c-5.6,4.5-7.6,11.8-5.2,18.6
	c2.4,6.8,8.6,11.1,15.8,11.1l54.5,0h0c19.4,0,38.1-5.9,54-17.1l61-42.9c8.5-6,20-4.9,27.3,2.5C469.8,281.7,478,294.5,463.9,308.6z"
	/>
<path class="st0" d="M147.6,447.9c0-16.3-13.2-29.5-29.5-29.5s-29.5,13.2-29.5,29.5c0,16.3,13.2,29.5,29.5,29.5
	S147.6,464.2,147.6,447.9z M103.6,447.9c0-8,6.5-14.5,14.5-14.5c8,0,14.5,6.5,14.5,14.5c0,8-6.5,14.5-14.5,14.5
	S103.6,455.9,103.6,447.9z"/>
<path class="st0" d="M64.3,235l108.8-109.6l24.5,12.7c8.8,4.5,19.4,3,26.5-3.9l59.2-57c0,0-1.6,29.3,23,29.3c12.7,0,23-10.3,23-23
	V23c0-0.1,0-0.1,0-0.2C329.3,7.1,317.8,0,306.4,0h-59.9c-12.7,0-23,10.3-23,23c0,25.3,25.8,23,25.8,23l-45.2,43.5l-24.8-12.8
	c-9-4.6-19.8-2.9-26.9,4.2L31.6,202.6c-8.9,9-8.9,23.6,0.1,32.6C36.1,239.5,50.9,248.4,64.3,235z M42.2,213.1L163,91.5
	c1.6-1.6,4.1-4.3,9.4-1.5l29.6,15.3c2.8,1.5,6.3,1,8.6-1.3L273,44c2.2-2.1,2.9-5.4,1.8-8.2c-1.1-2.8-3.9-4.7-6.9-4.7h-21.3
	c-4.4,0-8.1-3.6-8.1-8.1c0-4.4,3.6-8.1,8.1-8.1h59.9c2.2,0,8.1,0,8.1,8c0,0.1,0,0.1,0,0.2v60.2c0,4.4-3.6,8.1-8.1,8.1
	c-4.4,0-8.1-3.6-8.1-8.1V59.6c0-3-1.8-5.7-4.6-6.9c-2.8-1.2-6-0.6-8.1,1.5l-71.9,69.2c-2.5,2.4-6.2,2.9-9.3,1.4l-29.4-15.2
	c-2.9-1.5-6.4-0.9-8.8,1.4L53.7,224.5c-4.9,4.9-9.9,1.6-11.4,0C39.1,221.4,39.1,216.3,42.2,213.1z"/>
</svg>
