<?xml version="1.0" encoding="utf-8"?>
<!-- Generator: Adobe Illustrator 22.0.1, SVG Export Plug-In . SVG Version: 6.00 Build 0)  -->
<svg version="1.1" id="Слой_1" xmlns="http://www.w3.org/2000/svg" xmlns:xlink="http://www.w3.org/1999/xlink" x="0px" y="0px"
	 viewBox="0 0 50 50" style="enable-background:new 0 0 50 50;" xml:space="preserve">
<style type="text/css">
	.st0{fill:none;stroke:#F2EFED;stroke-width:4;}
	.st1{fill:#F2EFED;}
</style>
<g id="Oval_11_">
	<circle id="path-23_1_" class="st0" cx="25" cy="25" r="23"/>
</g>
<path id="Shape_11_" class="st1" d="M18.6,31.3v-4.2h0.8h0.8v-0.7v-0.7h-2.3h-2.3v0.7V27h0.8h0.8v4.2c0,2.3,0,4.2,0,4.2s0.2,0,0.7,0
	h0.7V31.3z M31.8,31c0-0.1,0-1.1,0.1-1.2c0.1-0.3,0.3-0.5,0.6-0.5s0.5,0.1,0.6,0.4c0.1,0.2,0.1,0.2,0.1,0.8v0.6h-0.7
	C31.9,31,31.8,31,31.8,31L31.8,31z M33.1,35.6c0.7-0.2,1.1-0.6,1.3-1.3c0-0.1,0.1-0.4,0.1-0.7v-0.5h-0.6h-0.6v0.4
	c0,0.5-0.1,0.7-0.3,0.8c-0.2,0.2-0.6,0.2-0.8,0c-0.3-0.2-0.3-0.5-0.3-1.5v-0.7h1.3h1.3V31c0-1.2,0-1.4-0.2-1.8
	c-0.4-0.8-1.5-1.2-2.4-0.9c-0.7,0.2-1.1,0.7-1.2,1.4c-0.1,0.2-0.1,0.5-0.1,2.2c0,2.2,0,2.3,0.2,2.7C31.2,35.4,32.2,35.8,33.1,35.6
	L33.1,35.6z M27.8,34.3c0.1-0.1,0.1-0.1,0.2-0.3s0.1-0.4,0.1-2.2c0-1.9,0-2.1-0.1-2.2c-0.2-0.3-0.6-0.4-0.9-0.1L27,29.6v2.2V34
	l0.1,0.1C27.3,34.4,27.6,34.5,27.8,34.3L27.8,34.3z M28.6,35.6c0.2-0.1,0.4-0.3,0.6-0.5c0.2-0.5,0.2-0.5,0.2-3.1
	c0-2.2,0-2.4-0.1-2.7c-0.2-0.8-0.6-1.1-1.2-1c-0.4,0-0.6,0.2-1,0.5c-0.1,0.1-0.3,0.3-0.3,0.3s0-0.7,0-1.6v-1.6h-0.6h-0.6v4.9v4.9
	h0.6h0.6v-0.3c0-0.2,0-0.3,0-0.3s0.2,0.1,0.3,0.3C27.7,35.6,28.1,35.7,28.6,35.6L28.6,35.6z M22,35.5c0.2-0.1,0.5-0.3,0.8-0.5
	c0.1-0.1,0.2-0.2,0.3-0.2c0,0,0,0.1,0,0.4v0.4h0.6h0.6V32v-3.6h-0.6h-0.6v2.8V34l-0.3,0.3c-0.2,0.2-0.3,0.3-0.4,0.3
	c-0.2,0.1-0.4,0-0.5-0.1s-0.1-0.2-0.1-3.1v-3h-0.6h-0.6v3.2c0,3.4,0,3.5,0.2,3.8C21,35.6,21.5,35.7,22,35.5L22,35.5z M22.5,38.6
	c-0.8,0-1.8,0-2.1,0c-2.4-0.1-4.1-0.2-4.4-0.2c-0.5-0.1-1-0.4-1.3-0.8c-0.5-0.6-0.8-1.4-0.9-2.5c-0.3-2.6-0.3-5.7,0-8.3
	c0.1-1.1,0.5-1.9,1-2.5c0.3-0.3,0.6-0.5,1-0.6c0.9-0.2,7.9-0.4,12.2-0.3c2.5,0.1,5.1,0.2,5.8,0.2c0.9,0.1,1.6,0.6,2,1.5
	c0.3,0.7,0.4,1.2,0.6,2.8c0.1,1.3,0.1,2.1,0.1,3.6c0,1.8-0.1,3.4-0.3,4.2c-0.2,0.9-0.6,1.7-1.1,2.2c-0.4,0.3-0.9,0.5-1.6,0.5
	c-0.2,0-0.5,0-0.6,0c-0.4,0-2.6,0.1-3.8,0.2C27.3,38.6,24.2,38.6,22.5,38.6z M20.3,22.4c0,0,0-2.9,0-3.3c0-0.5,0-0.9-0.4-2
	c-0.1-0.3-0.3-1-0.5-1.5c-1.1-3.4-1-3.2-0.9-3.2c0.7,0,1.6,0,1.6,0s0.2,0.8,0.5,1.8s0.5,1.8,0.5,1.8s0.2-0.6,0.4-1.3
	c0.4-1.5,0.6-2.4,0.6-2.4s0.2,0,0.9,0h0.7v0.1c0,0.1-0.5,1.7-1,3.4c-0.1,0.2-0.2,0.7-0.3,1c-0.1,0.4-0.3,0.9-0.3,1L22,18.1v2
	c0,1.9,0,2-0.1,2C21.7,22.4,20.3,22.4,20.3,22.4z M29.5,22.5c-0.3,0-0.6-0.2-0.7-0.5c-0.2-0.3-0.2-0.3-0.2-3.8V15h0.7H30v3
	c0,3.2,0,3.2,0.2,3.2s0.4-0.1,0.6-0.3l0.2-0.2v-2.8v-2.8h0.7h0.7v3.7v3.7h-0.1c-0.1,0-1.2,0-1.3,0c-0.1,0-0.1-0.1-0.1-0.4v-0.3
	L30.7,22C30.4,22.4,29.9,22.6,29.5,22.5L29.5,22.5z M25.9,21.1c0.2-0.2,0.2-0.2,0.3-2.3c0-1.6,0-1.9,0-2.1c-0.1-0.3-0.2-0.4-0.4-0.5
	c-0.3-0.1-0.6,0.1-0.7,0.4c-0.1,0.2-0.1,3.9,0,4.2c0.1,0.2,0.2,0.4,0.4,0.4C25.6,21.2,25.8,21.2,25.9,21.1L25.9,21.1z M25.4,22.5
	c-0.6-0.1-1.2-0.4-1.5-1c-0.3-0.5-0.3-0.8-0.3-3.1c0-1.8,0-1.9,0.1-2.1c0.2-0.6,0.5-1,1-1.3c0.7-0.3,1.4-0.3,2.1,0.1
	c0.4,0.3,0.7,0.7,0.8,1.2c0.1,0.3,0.1,0.4,0.1,2.2c0,2.2,0,2.3-0.2,2.8s-0.7,0.9-1.2,1C25.9,22.5,25.5,22.5,25.4,22.5L25.4,22.5z"/>
</svg>
